<svg width="1200" height="760" viewBox="0 0 1200 760" fill="none" xmlns="http://www.w3.org/2000/svg">
  <defs>
    <linearGradient id="bg" x1="104" y1="66" x2="1118" y2="694" gradientUnits="userSpaceOnUse">
      <stop stop-color="#03192E"/>
      <stop offset="1" stop-color="#131135"/>
    </linearGradient>
    <linearGradient id="grid" x1="328" y1="180" x2="868" y2="586" gradientUnits="userSpaceOnUse">
      <stop stop-color="#58DBFF"/>
      <stop offset="1" stop-color="#5677FF"/>
    </linearGradient>
  </defs>
  <rect width="1200" height="760" rx="44" fill="url(#bg)"/>
  <rect x="308" y="170" width="584" height="420" rx="26" fill="#0C1D40" stroke="url(#grid)" stroke-width="10"/>
  <rect x="344" y="206" width="164" height="114" rx="16" fill="#34D0FF" fill-opacity="0.2" stroke="#7CE4FF"/>
  <rect x="518" y="206" width="164" height="114" rx="16" fill="#5A7FFF" fill-opacity="0.2" stroke="#98B3FF"/>
  <rect x="692" y="206" width="164" height="114" rx="16" fill="#34D0FF" fill-opacity="0.2" stroke="#7CE4FF"/>
  <rect x="344" y="330" width="164" height="114" rx="16" fill="#5A7FFF" fill-opacity="0.2" stroke="#98B3FF"/>
  <rect x="518" y="330" width="164" height="114" rx="16" fill="#34D0FF" fill-opacity="0.2" stroke="#7CE4FF"/>
  <rect x="692" y="330" width="164" height="114" rx="16" fill="#5A7FFF" fill-opacity="0.2" stroke="#98B3FF"/>
  <rect x="344" y="454" width="512" height="100" rx="16" fill="#0A1838" stroke="#79E3FF" stroke-opacity="0.45"/>
  <path d="M252 314H308" stroke="#70E2FF" stroke-width="10" stroke-linecap="round"/>
  <path d="M892 314H948" stroke="#8B9EFF" stroke-width="10" stroke-linecap="round"/>
  <path d="M252 444H308" stroke="#70E2FF" stroke-width="10" stroke-linecap="round"/>
  <path d="M892 444H948" stroke="#8B9EFF" stroke-width="10" stroke-linecap="round"/>
</svg>
