<svg width="1200" height="760" viewBox="0 0 1200 760" fill="none" xmlns="http://www.w3.org/2000/svg">
  <defs>
    <linearGradient id="bg" x1="82" y1="58" x2="1112" y2="688" gradientUnits="userSpaceOnUse">
      <stop stop-color="#06223A"/>
      <stop offset="1" stop-color="#0E1434"/>
    </linearGradient>
    <linearGradient id="chip" x1="402" y1="190" x2="786" y2="580" gradientUnits="userSpaceOnUse">
      <stop stop-color="#5BDFFF"/>
      <stop offset="1" stop-color="#4B77FF"/>
    </linearGradient>
  </defs>
  <rect width="1200" height="760" rx="44" fill="url(#bg)"/>
  <rect x="398" y="184" width="404" height="392" rx="34" fill="#091D41" stroke="url(#chip)" stroke-width="12"/>
  <rect x="468" y="254" width="264" height="252" rx="20" fill="#0A2A4E" stroke="#84E7FF" stroke-opacity="0.8" stroke-width="6"/>
  <circle cx="600" cy="380" r="70" fill="#3ED4FF" fill-opacity="0.22" stroke="#86E8FF" stroke-width="6"/>
  <path d="M600 328V432" stroke="#C2F4FF" stroke-width="10" stroke-linecap="round"/>
  <path d="M548 380H652" stroke="#C2F4FF" stroke-width="10" stroke-linecap="round"/>
  <path d="M398 242H334" stroke="#7EE5FF" stroke-width="8" stroke-linecap="round"/>
  <path d="M398 318H320" stroke="#7EE5FF" stroke-width="8" stroke-linecap="round"/>
  <path d="M398 394H334" stroke="#7EE5FF" stroke-width="8" stroke-linecap="round"/>
  <path d="M398 470H320" stroke="#7EE5FF" stroke-width="8" stroke-linecap="round"/>
  <path d="M802 242H866" stroke="#8EA7FF" stroke-width="8" stroke-linecap="round"/>
  <path d="M802 318H880" stroke="#8EA7FF" stroke-width="8" stroke-linecap="round"/>
  <path d="M802 394H866" stroke="#8EA7FF" stroke-width="8" stroke-linecap="round"/>
  <path d="M802 470H880" stroke="#8EA7FF" stroke-width="8" stroke-linecap="round"/>
  <rect x="196" y="294" width="112" height="56" rx="12" fill="#32D0FF" fill-opacity="0.28" stroke="#79E3FF"/>
  <text x="218" y="331" fill="#D0F8FF" font-family="Outfit, sans-serif" font-size="28" font-weight="700">CRM</text>
  <rect x="892" y="418" width="116" height="56" rx="12" fill="#5F82FF" fill-opacity="0.24" stroke="#9DB2FF"/>
  <text x="917" y="455" fill="#E3E9FF" font-family="Outfit, sans-serif" font-size="28" font-weight="700">HR</text>
</svg>
